<svg width="28" height="16" viewBox="0 0 28 16" fill="none" xmlns="http://www.w3.org/2000/svg">
<path fill-rule="evenodd" clip-rule="evenodd" d="M28 8C28 8.23571 27.8946 8.46177 27.7071 8.62845C27.5196 8.79513 27.2653 8.88876 27.0001 8.88876H3.41557L9.70917 14.4809C9.89693 14.6478 10.0024 14.8741 10.0024 15.1101C10.0024 15.3461 9.89693 15.5725 9.70917 15.7394C9.52141 15.9062 9.26675 16 9.00121 16C8.73568 16 8.48102 15.9062 8.29326 15.7394L0.293768 8.62925C0.200647 8.54669 0.126768 8.44861 0.0763588 8.34063C0.0259476 8.23266 0 8.1169 0 8C0 7.8831 0.0259476 7.76734 0.0763588 7.65937C0.126768 7.55139 0.200647 7.45331 0.293768 7.37076L8.29326 0.260641C8.48102 0.0937548 8.73568 0 9.00121 0C9.26675 0 9.52141 0.0937548 9.70917 0.260641C9.89693 0.427527 10.0024 0.653873 10.0024 0.889886C10.0024 1.1259 9.89693 1.35225 9.70917 1.51913L3.41557 7.11124H27.0001C27.2653 7.11124 27.5196 7.20487 27.7071 7.37155C27.8946 7.53822 28 7.76429 28 8Z" fill="black"/>
</svg>
