<svg width="28" height="16" viewBox="0 0 28 16" fill="none" xmlns="http://www.w3.org/2000/svg">
<path fill-rule="evenodd" clip-rule="evenodd" d="M0.5 8C0.5 7.76429 0.601588 7.53823 0.782415 7.37155C0.963242 7.20487 1.2085 7.11124 1.46422 7.11124L24.2064 7.11124L18.1376 1.51913C17.9565 1.35225 17.8548 1.1259 17.8548 0.889887C17.8548 0.653874 17.9565 0.427528 18.1376 0.260642C18.3186 0.0937555 18.5642 5.56065e-09 18.8203 0C19.0763 -5.56065e-09 19.3219 0.0937555 19.5029 0.260642L27.2167 7.37075C27.3065 7.45331 27.3778 7.55139 27.4264 7.65937C27.475 7.76734 27.5 7.8831 27.5 8C27.5 8.1169 27.475 8.23266 27.4264 8.34063C27.3778 8.44861 27.3065 8.54669 27.2167 8.62925L19.5029 15.7394C19.3219 15.9062 19.0763 16 18.8203 16C18.5642 16 18.3186 15.9062 18.1376 15.7394C17.9565 15.5725 17.8548 15.3461 17.8548 15.1101C17.8548 14.8741 17.9565 14.6478 18.1376 14.4809L24.2064 8.88876L1.46422 8.88876C1.2085 8.88876 0.963242 8.79513 0.782415 8.62845C0.601588 8.46178 0.5 8.23571 0.5 8Z" fill="black"/>
</svg>
