<svg width="15" height="10" viewBox="0 0 15 10" fill="none" xmlns="http://www.w3.org/2000/svg">
<path fill-rule="evenodd" clip-rule="evenodd" d="M0.499512 5.00014C0.499512 4.86753 0.55219 4.74036 0.645958 4.64659C0.739726 4.55282 0.866903 4.50014 0.999512 4.50014H12.7925L9.64551 1.35414C9.55162 1.26026 9.49888 1.13292 9.49888 1.00014C9.49888 0.867368 9.55162 0.74003 9.64551 0.646143C9.7394 0.552257 9.86674 0.499512 9.99951 0.499512C10.1323 0.499512 10.2596 0.552257 10.3535 0.646143L14.3535 4.64614C14.4001 4.69259 14.437 4.74776 14.4622 4.80851C14.4874 4.86925 14.5004 4.93438 14.5004 5.00014C14.5004 5.06591 14.4874 5.13103 14.4622 5.19178C14.437 5.25252 14.4001 5.3077 14.3535 5.35414L10.3535 9.35414C10.2596 9.44803 10.1323 9.50077 9.99951 9.50077C9.86674 9.50077 9.7394 9.44803 9.64551 9.35414C9.55162 9.26026 9.49888 9.13292 9.49888 9.00014C9.49888 8.86737 9.55162 8.74003 9.64551 8.64614L12.7925 5.50014H0.999512C0.866903 5.50014 0.739726 5.44747 0.645958 5.3537C0.55219 5.25993 0.499512 5.13275 0.499512 5.00014Z" fill="white"/>
</svg>
