<svg width="68" height="53" viewBox="0 0 68 53" fill="none" xmlns="http://www.w3.org/2000/svg">
<path d="M59.6298 1.84709C60.0479 1.42059 60.5467 1.08176 61.0973 0.850452C61.6479 0.619143 62.2391 0.5 62.8363 0.5C63.4335 0.5 64.0247 0.619143 64.5752 0.850452C65.1258 1.08176 65.6247 1.42059 66.0427 1.84709C67.7945 3.61722 67.819 6.47759 66.104 8.27834L29.8869 51.092C29.4757 51.5436 28.9767 51.9065 28.4204 52.1585C27.8641 52.4106 27.2623 52.5465 26.6517 52.558C26.0411 52.5695 25.4346 52.4562 24.8692 52.2252C24.3039 51.9942 23.7916 51.6503 23.3637 51.2145L1.32601 28.8828C0.47609 28.016 0 26.8505 0 25.6366C0 24.4226 0.47609 23.2571 1.32601 22.3903C1.74402 21.9638 2.24291 21.625 2.79349 21.3937C3.34407 21.1624 3.93526 21.0432 4.53245 21.0432C5.12964 21.0432 5.72083 21.1624 6.27141 21.3937C6.82198 21.625 7.32088 21.9638 7.73888 22.3903L26.4324 41.3349L59.5073 1.98184L59.6298 1.84709Z" fill="black"/>
</svg>
