<svg width="48" height="48" viewBox="0 0 48 48" fill="none" xmlns="http://www.w3.org/2000/svg">
<path d="M29.0917 16.3135C29.0917 14.9101 28.6269 13.784 27.6973 12.9354C26.7678 12.0868 25.5353 11.6625 24 11.6625C23.0535 11.6625 22.197 11.8668 21.4307 12.2755C20.6643 12.6841 20.003 13.2794 19.4469 14.0615C18.9246 14.8122 18.2144 15.2449 17.3162 15.3598C16.418 15.4747 15.6431 15.2378 14.9917 14.649C14.5347 14.2247 14.2821 13.7024 14.2338 13.0823C14.1855 12.4622 14.3402 11.8747 14.6979 11.3198C15.7423 9.75313 17.0727 8.53765 18.689 7.67338C20.3053 6.8091 22.0756 6.37631 24 6.375C27.166 6.375 29.7366 7.27257 31.7119 9.06771C33.6872 10.8628 34.6742 13.2128 34.6729 16.1177C34.6729 17.5865 34.3628 18.9083 33.7427 20.0833C33.1226 21.2583 31.9802 22.6455 30.3156 24.2448C29.108 25.3872 28.292 26.2769 27.8677 26.914C27.4434 27.5511 27.166 28.277 27.0354 29.0917C26.9049 29.875 26.57 30.5278 26.0308 31.05C25.4916 31.5722 24.8473 31.8333 24.0979 31.8333C23.3485 31.8333 22.7042 31.5807 22.165 31.0755C21.6258 30.5702 21.3562 29.9416 21.3562 29.1896C21.3562 27.9167 21.6337 26.7502 22.1885 25.69C22.7434 24.6299 23.6736 23.5117 24.9792 22.3354C26.6437 20.8667 27.7456 19.7328 28.2848 18.9338C28.824 18.1348 29.093 17.2614 29.0917 16.3135ZM24 43.5833C22.9229 43.5833 22.0012 43.2002 21.2348 42.4338C20.4685 41.6674 20.0846 40.7451 20.0833 39.6667C20.082 38.5883 20.4658 37.6666 21.2348 36.9015C22.0038 36.1364 22.9255 35.7526 24 35.75C25.0745 35.7474 25.9968 36.1312 26.7671 36.9015C27.5374 37.6718 27.9206 38.5935 27.9167 39.6667C27.9127 40.7398 27.5296 41.6622 26.7671 42.4338C26.0047 43.2054 25.0823 43.5886 24 43.5833Z" fill="#E5E7EB"/>
</svg>
