<svg width="48" height="48" viewBox="0 0 48 48" fill="none" xmlns="http://www.w3.org/2000/svg">
<rect width="48" height="48" rx="10" fill="#3B82F6"/>
<path d="M20.4258 27.5352C20.4258 27.2305 20.3789 26.957 20.2852 26.7148C20.1992 26.4648 20.0352 26.2383 19.793 26.0352C19.5508 25.8242 19.2109 25.6172 18.7734 25.4141C18.3359 25.2109 17.7695 25 17.0742 24.7812C16.3008 24.5312 15.5664 24.25 14.8711 23.9375C14.1836 23.625 13.5742 23.2617 13.043 22.8477C12.5195 22.4258 12.1055 21.9375 11.8008 21.3828C11.5039 20.8281 11.3555 20.1836 11.3555 19.4492C11.3555 18.7383 11.5117 18.0938 11.8242 17.5156C12.1367 16.9297 12.5742 16.4297 13.1367 16.0156C13.6992 15.5938 14.3633 15.2695 15.1289 15.043C15.9023 14.8164 16.75 14.7031 17.6719 14.7031C18.9297 14.7031 20.0273 14.9297 20.9648 15.3828C21.9023 15.8359 22.6289 16.457 23.1445 17.2461C23.668 18.0352 23.9297 18.9375 23.9297 19.9531H20.4375C20.4375 19.4531 20.332 19.0156 20.1211 18.6406C19.918 18.2578 19.6055 17.957 19.1836 17.7383C18.7695 17.5195 18.2461 17.4102 17.6133 17.4102C17.0039 17.4102 16.4961 17.5039 16.0898 17.6914C15.6836 17.8711 15.3789 18.1172 15.1758 18.4297C14.9727 18.7344 14.8711 19.0781 14.8711 19.4609C14.8711 19.75 14.9414 20.0117 15.082 20.2461C15.2305 20.4805 15.4492 20.6992 15.7383 20.9023C16.0273 21.1055 16.3828 21.2969 16.8047 21.4766C17.2266 21.6562 17.7148 21.832 18.2695 22.0039C19.1992 22.2852 20.0156 22.6016 20.7188 22.9531C21.4297 23.3047 22.0234 23.6992 22.5 24.1367C22.9766 24.5742 23.3359 25.0703 23.5781 25.625C23.8203 26.1797 23.9414 26.8086 23.9414 27.5117C23.9414 28.2539 23.7969 28.918 23.5078 29.5039C23.2188 30.0898 22.8008 30.5859 22.2539 30.9922C21.707 31.3984 21.0547 31.707 20.2969 31.918C19.5391 32.1289 18.6914 32.2344 17.7539 32.2344C16.9102 32.2344 16.0781 32.125 15.2578 31.9062C14.4375 31.6797 13.6914 31.3398 13.0195 30.8867C12.3555 30.4336 11.8242 29.8555 11.4258 29.1523C11.0273 28.4492 10.8281 27.6172 10.8281 26.6562H14.3555C14.3555 27.1875 14.4375 27.6367 14.6016 28.0039C14.7656 28.3711 14.9961 28.668 15.293 28.8945C15.5977 29.1211 15.957 29.2852 16.3711 29.3867C16.793 29.4883 17.2539 29.5391 17.7539 29.5391C18.3633 29.5391 18.8633 29.4531 19.2539 29.2812C19.6523 29.1094 19.9453 28.8711 20.1328 28.5664C20.3281 28.2617 20.4258 27.918 20.4258 27.5352ZM29.8477 14.9375V32H26.332V14.9375H29.8477ZM36.6445 22.2266V24.9688H28.8867V22.2266H36.6445ZM37.4648 14.9375V17.6914H28.8867V14.9375H37.4648Z" fill="white"/>
</svg>
