<svg width="48" height="48" viewBox="0 0 48 48" fill="none" xmlns="http://www.w3.org/2000/svg">
<rect width="48" height="48" rx="10" fill="#3B82F6"/>
<path d="M21.3164 27.6875C21.3164 27.2891 21.2539 26.9375 21.1289 26.6328C21.0117 26.3203 20.8008 26.0391 20.4961 25.7891C20.1992 25.5391 19.7852 25.3008 19.2539 25.0742C18.7305 24.8477 18.0664 24.6172 17.2617 24.3828C16.418 24.1328 15.6562 23.8555 14.9766 23.5508C14.2969 23.2383 13.7148 22.8828 13.2305 22.4844C12.7461 22.0859 12.375 21.6289 12.1172 21.1133C11.8594 20.5977 11.7305 20.0078 11.7305 19.3438C11.7305 18.6797 11.8672 18.0664 12.1406 17.5039C12.4141 16.9414 12.8047 16.4531 13.3125 16.0391C13.8281 15.6172 14.4414 15.2891 15.1523 15.0547C15.8633 14.8203 16.6562 14.7031 17.5312 14.7031C18.8125 14.7031 19.8984 14.9492 20.7891 15.4414C21.6875 15.9258 22.3711 16.5625 22.8398 17.3516C23.3086 18.1328 23.543 18.9688 23.543 19.8594H21.293C21.293 19.2188 21.1562 18.6523 20.8828 18.1602C20.6094 17.6602 20.1953 17.2695 19.6406 16.9883C19.0859 16.6992 18.3828 16.5547 17.5312 16.5547C16.7266 16.5547 16.0625 16.6758 15.5391 16.918C15.0156 17.1602 14.625 17.4883 14.3672 17.9023C14.1172 18.3164 13.9922 18.7891 13.9922 19.3203C13.9922 19.6797 14.0664 20.0078 14.2148 20.3047C14.3711 20.5938 14.6094 20.8633 14.9297 21.1133C15.2578 21.3633 15.6719 21.5938 16.1719 21.8047C16.6797 22.0156 17.2852 22.2188 17.9883 22.4141C18.957 22.6875 19.793 22.9922 20.4961 23.3281C21.1992 23.6641 21.7773 24.043 22.2305 24.4648C22.6914 24.8789 23.0312 25.3516 23.25 25.8828C23.4766 26.4062 23.5898 27 23.5898 27.6641C23.5898 28.3594 23.4492 28.9883 23.168 29.5508C22.8867 30.1133 22.4844 30.5938 21.9609 30.9922C21.4375 31.3906 20.8086 31.6992 20.0742 31.918C19.3477 32.1289 18.5352 32.2344 17.6367 32.2344C16.8477 32.2344 16.0703 32.125 15.3047 31.9062C14.5469 31.6875 13.8555 31.3594 13.2305 30.9219C12.6133 30.4844 12.1172 29.9453 11.7422 29.3047C11.375 28.6562 11.1914 27.9062 11.1914 27.0547H13.4414C13.4414 27.6406 13.5547 28.1445 13.7812 28.5664C14.0078 28.9805 14.3164 29.3242 14.707 29.5977C15.1055 29.8711 15.5547 30.0742 16.0547 30.207C16.5625 30.332 17.0898 30.3945 17.6367 30.3945C18.4258 30.3945 19.0938 30.2852 19.6406 30.0664C20.1875 29.8477 20.6016 29.5352 20.8828 29.1289C21.1719 28.7227 21.3164 28.2422 21.3164 27.6875ZM28.7344 14.9375V32H26.4727V14.9375H28.7344ZM35.8828 22.6133V24.4648H28.2422V22.6133H35.8828ZM37.043 14.9375V16.7891H28.2422V14.9375H37.043Z" fill="white"/>
</svg>
