<svg width="25" height="25" viewBox="0 0 25 25" fill="none" xmlns="http://www.w3.org/2000/svg">
<path d="M15.462 8.09604L13.173 5.80804L15.462 3.51904L17.75 5.80804L15.462 8.09604ZM20.462 11.096L19.173 9.80804L20.462 8.51904L21.75 9.80804L20.462 11.096ZM12.825 21.5C11.5663 21.5 10.3853 21.2624 9.28198 20.787C8.17864 20.3117 7.21464 19.6614 6.38998 18.836C5.56531 18.0107 4.91498 17.0464 4.43898 15.943C3.96298 14.8397 3.72498 13.6587 3.72498 12.4C3.72498 10.4534 4.28498 8.69838 5.40498 7.13504C6.52498 5.57171 8.00364 4.48171 9.84098 3.86504C9.77164 5.42504 10.0106 6.92538 10.558 8.36604C11.1046 9.80671 11.9313 11.08 13.038 12.186C14.1446 13.2927 15.418 14.1197 16.858 14.667C18.298 15.2144 19.7986 15.4534 21.36 15.384C20.7466 17.22 19.6573 18.6984 18.092 19.819C16.5266 20.9397 14.771 21.5 12.825 21.5Z" fill="#E5E7EB"/>
</svg>
