<svg width="25" height="25" viewBox="0 0 25 25" fill="none" xmlns="http://www.w3.org/2000/svg">
<path d="M11.25 5.5V1.5H13.25V5.5H11.25ZM17.9 8.25L16.525 6.875L19.325 4L20.725 5.425L17.9 8.25ZM19.25 13.5V11.5H23.25V13.5H19.25ZM11.25 23.5V19.5H13.25V23.5H11.25ZM6.6 8.2L3.75 5.425L5.175 4.025L8 6.85L6.6 8.2ZM19.3 21L16.525 18.125L17.875 16.775L20.725 19.525L19.3 21ZM1.25 13.5V11.5H5.25V13.5H1.25ZM5.175 21L3.775 19.575L6.575 16.775L7.3 17.45L8.025 18.15L5.175 21ZM12.25 18.5C10.5833 18.5 9.16667 17.9167 8 16.75C6.83333 15.5833 6.25 14.1667 6.25 12.5C6.25 10.8333 6.83333 9.41667 8 8.25C9.16667 7.08333 10.5833 6.5 12.25 6.5C13.9167 6.5 15.3333 7.08333 16.5 8.25C17.6667 9.41667 18.25 10.8333 18.25 12.5C18.25 14.1667 17.6667 15.5833 16.5 16.75C15.3333 17.9167 13.9167 18.5 12.25 18.5ZM12.25 16.5C13.35 16.5 14.2917 16.1083 15.075 15.325C15.8583 14.5417 16.25 13.6 16.25 12.5C16.25 11.4 15.8583 10.4583 15.075 9.675C14.2917 8.89167 13.35 8.5 12.25 8.5C11.15 8.5 10.2083 8.89167 9.425 9.675C8.64167 10.4583 8.25 11.4 8.25 12.5C8.25 13.6 8.64167 14.5417 9.425 15.325C10.2083 16.1083 11.15 16.5 12.25 16.5Z" fill="#E5E7EB"/>
</svg>
