<svg width="32" height="32" viewBox="0 0 32 32" fill="none" xmlns="http://www.w3.org/2000/svg">
<path d="M7.99999 25.3334H12V18.6667C12 18.289 12.128 17.9725 12.384 17.7174C12.64 17.4623 12.9564 17.3343 13.3333 17.3334H18.6667C19.0444 17.3334 19.3613 17.4614 19.6173 17.7174C19.8733 17.9734 20.0009 18.2899 20 18.6667V25.3334H24V13.3334L16 7.33341L7.99999 13.3334V25.3334ZM5.33333 25.3334V13.3334C5.33333 12.9112 5.42799 12.5112 5.61733 12.1334C5.80666 11.7556 6.06755 11.4445 6.4 11.2001L14.4 5.20008C14.8667 4.84453 15.4 4.66675 16 4.66675C16.6 4.66675 17.1333 4.84453 17.6 5.20008L25.6 11.2001C25.9333 11.4445 26.1947 11.7556 26.384 12.1334C26.5733 12.5112 26.6675 12.9112 26.6667 13.3334V25.3334C26.6667 26.0667 26.4053 26.6947 25.8827 27.2174C25.36 27.7401 24.7324 28.001 24 28.0001H18.6667C18.2889 28.0001 17.9724 27.8721 17.7173 27.6161C17.4622 27.3601 17.3342 27.0436 17.3333 26.6667V20.0001H14.6667V26.6667C14.6667 27.0445 14.5387 27.3614 14.2827 27.6174C14.0267 27.8734 13.7102 28.001 13.3333 28.0001H7.99999C7.26666 28.0001 6.63911 27.7392 6.11733 27.2174C5.59555 26.6956 5.33422 26.0676 5.33333 25.3334Z" fill="#E5E7EB"/>
</svg>
