<svg width="32" height="32" viewBox="0 0 32 32" fill="none" xmlns="http://www.w3.org/2000/svg">
<path d="M2.33334 17.8667C2.04445 17.6667 1.87245 17.3947 1.81734 17.0507C1.76223 16.7067 1.82311 16.3787 2 16.0667L6.06667 9.53336C6.55556 8.75558 7.25023 8.33914 8.15067 8.28403C9.05111 8.22892 9.78978 8.54536 10.3667 9.23336L12 11.1334L15.1667 6.00003C15.6778 5.15558 16.4169 4.72803 17.384 4.71736C18.3511 4.70669 19.1009 5.11203 19.6333 5.93336L21.3333 8.4667L25.0667 2.53336C25.2667 2.20003 25.5613 1.99469 25.9507 1.91736C26.34 1.84003 26.6898 1.92314 27 2.16669C27.2889 2.36669 27.4613 2.63914 27.5173 2.98403C27.5733 3.32892 27.512 3.65647 27.3333 3.96669L23.6 9.90003C23.0889 10.7223 22.3502 11.1334 21.384 11.1334C20.4178 11.1334 19.6676 10.7334 19.1333 9.93336L17.4333 7.40003L14.2667 12.5334C13.8 13.3111 13.1169 13.7334 12.2173 13.8C11.3178 13.8667 10.5787 13.5556 10 12.8667L8.33334 10.9334L4.26667 17.5C4.06667 17.8334 3.772 18.0391 3.38267 18.1174C2.99334 18.1956 2.64356 18.112 2.33334 17.8667ZM19.3333 24C20.2667 24 21.0556 23.6778 21.7 23.0334C22.3444 22.3889 22.6667 21.6 22.6667 20.6667C22.6667 19.7334 22.3444 18.9445 21.7 18.3C21.0556 17.6556 20.2667 17.3334 19.3333 17.3334C18.4 17.3334 17.6111 17.6556 16.9667 18.3C16.3222 18.9445 16 19.7334 16 20.6667C16 21.6 16.3222 22.3889 16.9667 23.0334C17.6111 23.6778 18.4 24 19.3333 24ZM19.3333 26.6667C17.6667 26.6667 16.2498 26.0836 15.0827 24.9174C13.9156 23.7511 13.3324 22.3343 13.3333 20.6667C13.3342 18.9991 13.9178 17.5827 15.084 16.4174C16.2502 15.252 17.6667 14.6685 19.3333 14.6667C21 14.6649 22.4169 15.2485 23.584 16.4174C24.7511 17.5863 25.3342 19.0027 25.3333 20.6667C25.3333 21.2445 25.2556 21.8058 25.1 22.3507C24.9444 22.8956 24.7111 23.4009 24.4 23.8667L27.0667 26.5334C27.3111 26.7778 27.4333 27.0889 27.4333 27.4667C27.4333 27.8445 27.3111 28.1556 27.0667 28.4C26.8222 28.6445 26.5111 28.7667 26.1333 28.7667C25.7556 28.7667 25.4444 28.6445 25.2 28.4L22.5333 25.7334C22.0667 26.0445 21.5613 26.2778 21.0173 26.4334C20.4733 26.5889 19.912 26.6667 19.3333 26.6667Z" fill="#E5E7EB"/>
</svg>
