<svg width="157" height="48" viewBox="0 0 157 48" fill="none" xmlns="http://www.w3.org/2000/svg">
<rect width="48" height="48" rx="10" fill="#3B82F6"/>
<path d="M21.3164 27.6875C21.3164 27.2891 21.2539 26.9375 21.1289 26.6328C21.0117 26.3203 20.8008 26.0391 20.4961 25.7891C20.1992 25.5391 19.7852 25.3008 19.2539 25.0742C18.7305 24.8477 18.0664 24.6172 17.2617 24.3828C16.418 24.1328 15.6562 23.8555 14.9766 23.5508C14.2969 23.2383 13.7148 22.8828 13.2305 22.4844C12.7461 22.0859 12.375 21.6289 12.1172 21.1133C11.8594 20.5977 11.7305 20.0078 11.7305 19.3438C11.7305 18.6797 11.8672 18.0664 12.1406 17.5039C12.4141 16.9414 12.8047 16.4531 13.3125 16.0391C13.8281 15.6172 14.4414 15.2891 15.1523 15.0547C15.8633 14.8203 16.6562 14.7031 17.5312 14.7031C18.8125 14.7031 19.8984 14.9492 20.7891 15.4414C21.6875 15.9258 22.3711 16.5625 22.8398 17.3516C23.3086 18.1328 23.543 18.9688 23.543 19.8594H21.293C21.293 19.2188 21.1562 18.6523 20.8828 18.1602C20.6094 17.6602 20.1953 17.2695 19.6406 16.9883C19.0859 16.6992 18.3828 16.5547 17.5312 16.5547C16.7266 16.5547 16.0625 16.6758 15.5391 16.918C15.0156 17.1602 14.625 17.4883 14.3672 17.9023C14.1172 18.3164 13.9922 18.7891 13.9922 19.3203C13.9922 19.6797 14.0664 20.0078 14.2148 20.3047C14.3711 20.5938 14.6094 20.8633 14.9297 21.1133C15.2578 21.3633 15.6719 21.5938 16.1719 21.8047C16.6797 22.0156 17.2852 22.2188 17.9883 22.4141C18.957 22.6875 19.793 22.9922 20.4961 23.3281C21.1992 23.6641 21.7773 24.043 22.2305 24.4648C22.6914 24.8789 23.0312 25.3516 23.25 25.8828C23.4766 26.4062 23.5898 27 23.5898 27.6641C23.5898 28.3594 23.4492 28.9883 23.168 29.5508C22.8867 30.1133 22.4844 30.5938 21.9609 30.9922C21.4375 31.3906 20.8086 31.6992 20.0742 31.918C19.3477 32.1289 18.5352 32.2344 17.6367 32.2344C16.8477 32.2344 16.0703 32.125 15.3047 31.9062C14.5469 31.6875 13.8555 31.3594 13.2305 30.9219C12.6133 30.4844 12.1172 29.9453 11.7422 29.3047C11.375 28.6562 11.1914 27.9062 11.1914 27.0547H13.4414C13.4414 27.6406 13.5547 28.1445 13.7812 28.5664C14.0078 28.9805 14.3164 29.3242 14.707 29.5977C15.1055 29.8711 15.5547 30.0742 16.0547 30.207C16.5625 30.332 17.0898 30.3945 17.6367 30.3945C18.4258 30.3945 19.0938 30.2852 19.6406 30.0664C20.1875 29.8477 20.6016 29.5352 20.8828 29.1289C21.1719 28.7227 21.3164 28.2422 21.3164 27.6875ZM28.7344 14.9375V32H26.4727V14.9375H28.7344ZM35.8828 22.6133V24.4648H28.2422V22.6133H35.8828ZM37.043 14.9375V16.7891H28.2422V14.9375H37.043Z" fill="white"/>
<path d="M64.1953 27.6875C64.1953 27.2891 64.1328 26.9375 64.0078 26.6328C63.8906 26.3203 63.6797 26.0391 63.375 25.7891C63.0781 25.5391 62.6641 25.3008 62.1328 25.0742C61.6094 24.8477 60.9453 24.6172 60.1406 24.3828C59.2969 24.1328 58.5352 23.8555 57.8555 23.5508C57.1758 23.2383 56.5938 22.8828 56.1094 22.4844C55.625 22.0859 55.2539 21.6289 54.9961 21.1133C54.7383 20.5977 54.6094 20.0078 54.6094 19.3438C54.6094 18.6797 54.7461 18.0664 55.0195 17.5039C55.293 16.9414 55.6836 16.4531 56.1914 16.0391C56.707 15.6172 57.3203 15.2891 58.0312 15.0547C58.7422 14.8203 59.5352 14.7031 60.4102 14.7031C61.6914 14.7031 62.7773 14.9492 63.668 15.4414C64.5664 15.9258 65.25 16.5625 65.7188 17.3516C66.1875 18.1328 66.4219 18.9688 66.4219 19.8594H64.1719C64.1719 19.2188 64.0352 18.6523 63.7617 18.1602C63.4883 17.6602 63.0742 17.2695 62.5195 16.9883C61.9648 16.6992 61.2617 16.5547 60.4102 16.5547C59.6055 16.5547 58.9414 16.6758 58.418 16.918C57.8945 17.1602 57.5039 17.4883 57.2461 17.9023C56.9961 18.3164 56.8711 18.7891 56.8711 19.3203C56.8711 19.6797 56.9453 20.0078 57.0938 20.3047C57.25 20.5938 57.4883 20.8633 57.8086 21.1133C58.1367 21.3633 58.5508 21.5938 59.0508 21.8047C59.5586 22.0156 60.1641 22.2188 60.8672 22.4141C61.8359 22.6875 62.6719 22.9922 63.375 23.3281C64.0781 23.6641 64.6562 24.043 65.1094 24.4648C65.5703 24.8789 65.9102 25.3516 66.1289 25.8828C66.3555 26.4062 66.4688 27 66.4688 27.6641C66.4688 28.3594 66.3281 28.9883 66.0469 29.5508C65.7656 30.1133 65.3633 30.5938 64.8398 30.9922C64.3164 31.3906 63.6875 31.6992 62.9531 31.918C62.2266 32.1289 61.4141 32.2344 60.5156 32.2344C59.7266 32.2344 58.9492 32.125 58.1836 31.9062C57.4258 31.6875 56.7344 31.3594 56.1094 30.9219C55.4922 30.4844 54.9961 29.9453 54.6211 29.3047C54.2539 28.6562 54.0703 27.9062 54.0703 27.0547H56.3203C56.3203 27.6406 56.4336 28.1445 56.6602 28.5664C56.8867 28.9805 57.1953 29.3242 57.5859 29.5977C57.9844 29.8711 58.4336 30.0742 58.9336 30.207C59.4414 30.332 59.9688 30.3945 60.5156 30.3945C61.3047 30.3945 61.9727 30.2852 62.5195 30.0664C63.0664 29.8477 63.4805 29.5352 63.7617 29.1289C64.0508 28.7227 64.1953 28.2422 64.1953 27.6875ZM71.1914 21.7578V36.875H69.0117V19.3203H71.0039L71.1914 21.7578ZM79.7344 25.5547V25.8008C79.7344 26.7227 79.625 27.5781 79.4062 28.3672C79.1875 29.1484 78.8672 29.8281 78.4453 30.4062C78.0312 30.9844 77.5195 31.4336 76.9102 31.7539C76.3008 32.0742 75.6016 32.2344 74.8125 32.2344C74.0078 32.2344 73.2969 32.1016 72.6797 31.8359C72.0625 31.5703 71.5391 31.1836 71.1094 30.6758C70.6797 30.168 70.3359 29.5586 70.0781 28.8477C69.8281 28.1367 69.6562 27.3359 69.5625 26.4453V25.1328C69.6562 24.1953 69.832 23.3555 70.0898 22.6133C70.3477 21.8711 70.6875 21.2383 71.1094 20.7148C71.5391 20.1836 72.0586 19.7812 72.668 19.5078C73.2773 19.2266 73.9805 19.0859 74.7773 19.0859C75.5742 19.0859 76.2812 19.2422 76.8984 19.5547C77.5156 19.8594 78.0352 20.2969 78.457 20.8672C78.8789 21.4375 79.1953 22.1211 79.4062 22.918C79.625 23.707 79.7344 24.5859 79.7344 25.5547ZM77.5547 25.8008V25.5547C77.5547 24.9219 77.4883 24.3281 77.3555 23.7734C77.2227 23.2109 77.0156 22.7188 76.7344 22.2969C76.4609 21.8672 76.1094 21.5312 75.6797 21.2891C75.25 21.0391 74.7383 20.9141 74.1445 20.9141C73.5977 20.9141 73.1211 21.0078 72.7148 21.1953C72.3164 21.3828 71.9766 21.6367 71.6953 21.957C71.4141 22.2695 71.1836 22.6289 71.0039 23.0352C70.832 23.4336 70.7031 23.8477 70.6172 24.2773V27.3125C70.7734 27.8594 70.9922 28.375 71.2734 28.8594C71.5547 29.3359 71.9297 29.7227 72.3984 30.0195C72.8672 30.3086 73.457 30.4531 74.168 30.4531C74.7539 30.4531 75.2578 30.332 75.6797 30.0898C76.1094 29.8398 76.4609 29.5 76.7344 29.0703C77.0156 28.6406 77.2227 28.1484 77.3555 27.5938C77.4883 27.0312 77.5547 26.4336 77.5547 25.8008ZM87.7617 32.2344C86.8789 32.2344 86.0781 32.0859 85.3594 31.7891C84.6484 31.4844 84.0352 31.0586 83.5195 30.5117C83.0117 29.9648 82.6211 29.3164 82.3477 28.5664C82.0742 27.8164 81.9375 26.9961 81.9375 26.1055V25.6133C81.9375 24.582 82.0898 23.6641 82.3945 22.8594C82.6992 22.0469 83.1133 21.3594 83.6367 20.7969C84.1602 20.2344 84.7539 19.8086 85.418 19.5195C86.082 19.2305 86.7695 19.0859 87.4805 19.0859C88.3867 19.0859 89.168 19.2422 89.8242 19.5547C90.4883 19.8672 91.0312 20.3047 91.4531 20.8672C91.875 21.4219 92.1875 22.0781 92.3906 22.8359C92.5938 23.5859 92.6953 24.4062 92.6953 25.2969V26.2695H83.2266V24.5H90.5273V24.3359C90.4961 23.7734 90.3789 23.2266 90.1758 22.6953C89.9805 22.1641 89.668 21.7266 89.2383 21.3828C88.8086 21.0391 88.2227 20.8672 87.4805 20.8672C86.9883 20.8672 86.5352 20.9727 86.1211 21.1836C85.707 21.3867 85.3516 21.6914 85.0547 22.0977C84.7578 22.5039 84.5273 23 84.3633 23.5859C84.1992 24.1719 84.1172 24.8477 84.1172 25.6133V26.1055C84.1172 26.707 84.1992 27.2734 84.3633 27.8047C84.5352 28.3281 84.7812 28.7891 85.1016 29.1875C85.4297 29.5859 85.8242 29.8984 86.2852 30.125C86.7539 30.3516 87.2852 30.4648 87.8789 30.4648C88.6445 30.4648 89.293 30.3086 89.8242 29.9961C90.3555 29.6836 90.8203 29.2656 91.2188 28.7422L92.5312 29.7852C92.2578 30.1992 91.9102 30.5938 91.4883 30.9688C91.0664 31.3438 90.5469 31.6484 89.9297 31.8828C89.3203 32.1172 88.5977 32.2344 87.7617 32.2344ZM97.582 14V32H95.4023V14H97.582ZM103.418 14V32H101.238V14H103.418ZM109.488 14.9375V32H107.227V14.9375H109.488ZM116.637 22.6133V24.4648H108.996V22.6133H116.637ZM117.797 14.9375V16.7891H108.996V14.9375H117.797ZM122.52 19.3203V32H120.34V19.3203H122.52ZM120.176 15.957C120.176 15.6055 120.281 15.3086 120.492 15.0664C120.711 14.8242 121.031 14.7031 121.453 14.7031C121.867 14.7031 122.184 14.8242 122.402 15.0664C122.629 15.3086 122.742 15.6055 122.742 15.957C122.742 16.293 122.629 16.582 122.402 16.8242C122.184 17.0586 121.867 17.1758 121.453 17.1758C121.031 17.1758 120.711 17.0586 120.492 16.8242C120.281 16.582 120.176 16.293 120.176 15.957ZM127.465 19.3203L130.242 23.9375L133.055 19.3203H135.598L131.449 25.5781L135.727 32H133.219L130.289 27.2422L127.359 32H124.84L129.105 25.5781L124.969 19.3203H127.465ZM142.934 32.2344C142.051 32.2344 141.25 32.0859 140.531 31.7891C139.82 31.4844 139.207 31.0586 138.691 30.5117C138.184 29.9648 137.793 29.3164 137.52 28.5664C137.246 27.8164 137.109 26.9961 137.109 26.1055V25.6133C137.109 24.582 137.262 23.6641 137.566 22.8594C137.871 22.0469 138.285 21.3594 138.809 20.7969C139.332 20.2344 139.926 19.8086 140.59 19.5195C141.254 19.2305 141.941 19.0859 142.652 19.0859C143.559 19.0859 144.34 19.2422 144.996 19.5547C145.66 19.8672 146.203 20.3047 146.625 20.8672C147.047 21.4219 147.359 22.0781 147.562 22.8359C147.766 23.5859 147.867 24.4062 147.867 25.2969V26.2695H138.398V24.5H145.699V24.3359C145.668 23.7734 145.551 23.2266 145.348 22.6953C145.152 22.1641 144.84 21.7266 144.41 21.3828C143.98 21.0391 143.395 20.8672 142.652 20.8672C142.16 20.8672 141.707 20.9727 141.293 21.1836C140.879 21.3867 140.523 21.6914 140.227 22.0977C139.93 22.5039 139.699 23 139.535 23.5859C139.371 24.1719 139.289 24.8477 139.289 25.6133V26.1055C139.289 26.707 139.371 27.2734 139.535 27.8047C139.707 28.3281 139.953 28.7891 140.273 29.1875C140.602 29.5859 140.996 29.8984 141.457 30.125C141.926 30.3516 142.457 30.4648 143.051 30.4648C143.816 30.4648 144.465 30.3086 144.996 29.9961C145.527 29.6836 145.992 29.2656 146.391 28.7422L147.703 29.7852C147.43 30.1992 147.082 30.5938 146.66 30.9688C146.238 31.3438 145.719 31.6484 145.102 31.8828C144.492 32.1172 143.77 32.2344 142.934 32.2344ZM152.566 21.3125V32H150.398V19.3203H152.508L152.566 21.3125ZM156.527 19.25L156.516 21.2656C156.336 21.2266 156.164 21.2031 156 21.1953C155.844 21.1797 155.664 21.1719 155.461 21.1719C154.961 21.1719 154.52 21.25 154.137 21.4062C153.754 21.5625 153.43 21.7812 153.164 22.0625C152.898 22.3438 152.688 22.6797 152.531 23.0703C152.383 23.4531 152.285 23.875 152.238 24.3359L151.629 24.6875C151.629 23.9219 151.703 23.2031 151.852 22.5312C152.008 21.8594 152.246 21.2656 152.566 20.75C152.887 20.2266 153.293 19.8203 153.785 19.5312C154.285 19.2344 154.879 19.0859 155.566 19.0859C155.723 19.0859 155.902 19.1055 156.105 19.1445C156.309 19.1758 156.449 19.2109 156.527 19.25Z" fill="#E5E7EB"/>
</svg>
