<svg width="36" height="37" viewBox="0 0 36 37" fill="none" xmlns="http://www.w3.org/2000/svg">
<path fill-rule="evenodd" clip-rule="evenodd" d="M24 14C24 15.5913 23.3679 17.1174 22.2426 18.2426C21.1174 19.3679 19.5913 20 18 20C16.4087 20 14.8826 19.3679 13.7574 18.2426C12.6321 17.1174 12 15.5913 12 14C12 12.4087 12.6321 10.8826 13.7574 9.75736C14.8826 8.63214 16.4087 8 18 8C19.5913 8 21.1174 8.63214 22.2426 9.75736C23.3679 10.8826 24 12.4087 24 14ZM21 14C21 14.7956 20.6839 15.5587 20.1213 16.1213C19.5587 16.6839 18.7956 17 18 17C17.2043 17 16.4413 16.6839 15.8787 16.1213C15.3161 15.5587 15 14.7956 15 14C15 13.2043 15.3161 12.4413 15.8787 11.8787C16.4413 11.3161 17.2043 11 18 11C18.7956 11 19.5587 11.3161 20.1213 11.8787C20.6839 12.4413 21 13.2043 21 14Z" fill="#E5E7EB"/>
<path fill-rule="evenodd" clip-rule="evenodd" d="M18 2C8.8875 2 1.5 9.3875 1.5 18.5C1.5 27.6125 8.8875 35 18 35C27.1125 35 34.5 27.6125 34.5 18.5C34.5 9.3875 27.1125 2 18 2ZM4.5 18.5C4.5 21.635 5.5695 24.521 7.362 26.813C8.62116 25.1602 10.2452 23.8207 12.1075 22.8991C13.9697 21.9775 16.0197 21.4987 18.0975 21.5C20.1486 21.4976 22.1731 21.9636 24.0167 22.8626C25.8603 23.7615 27.4742 25.0695 28.7355 26.687C30.0352 24.9824 30.9103 22.9928 31.2883 20.8829C31.6664 18.7729 31.5366 16.6033 30.9097 14.5535C30.2828 12.5036 29.1768 10.6326 27.6832 9.09506C26.1896 7.55754 24.3514 6.39779 22.3206 5.71176C20.2898 5.02574 18.1248 4.83316 16.0048 5.14996C13.8848 5.46676 11.8707 6.28384 10.1292 7.53358C8.38762 8.78332 6.96872 10.4298 5.98984 12.3368C5.01097 14.2438 4.50027 16.3565 4.5 18.5ZM18 32C14.9009 32.005 11.8952 30.9388 9.492 28.982C10.4592 27.5969 11.7468 26.4661 13.2451 25.6857C14.7434 24.9053 16.4081 24.4985 18.0975 24.5C19.7658 24.4985 21.4103 24.8952 22.8945 25.657C24.3787 26.4188 25.6596 27.5237 26.631 28.88C24.2092 30.9005 21.154 32.0049 18 32Z" fill="#E5E7EB"/>
</svg>
